<mxfile host="Electron" modified="2024-04-28T15:48:11.774Z" agent="Mozilla/5.0 (Windows NT 10.0; Win64; x64) AppleWebKit/537.36 (KHTML, like Gecko) draw.io/22.1.2 Chrome/114.0.5735.289 Electron/25.9.4 Safari/537.36" etag="yQSLvKmOIwe5d5DtxQS4" version="22.1.2" type="device">
  <diagram name="Page-1" id="0k63BgW4LbUhtqHlWZo7">
    <mxGraphModel dx="914" dy="876" grid="1" gridSize="10" guides="1" tooltips="1" connect="1" arrows="1" fold="1" page="1" pageScale="1" pageWidth="850" pageHeight="1100" math="0" shadow="0">
      <root>
        <mxCell id="0" />
        <mxCell id="1" parent="0" />
        <mxCell id="nmYpvtoVf5eafUVBB_fZ-29" style="edgeStyle=orthogonalEdgeStyle;rounded=0;orthogonalLoop=1;jettySize=auto;html=1;entryX=0.5;entryY=0;entryDx=0;entryDy=0;" edge="1" parent="1" source="nmYpvtoVf5eafUVBB_fZ-9" target="nmYpvtoVf5eafUVBB_fZ-28">
          <mxGeometry relative="1" as="geometry" />
        </mxCell>
        <mxCell id="nmYpvtoVf5eafUVBB_fZ-9" value="1. Login&lt;br&gt;" style="rounded=1;whiteSpace=wrap;html=1;" vertex="1" parent="1">
          <mxGeometry x="250" y="450" width="120" height="60" as="geometry" />
        </mxCell>
        <mxCell id="nmYpvtoVf5eafUVBB_fZ-20" style="edgeStyle=orthogonalEdgeStyle;rounded=0;orthogonalLoop=1;jettySize=auto;html=1;entryX=0.5;entryY=0;entryDx=0;entryDy=0;" edge="1" parent="1" source="nmYpvtoVf5eafUVBB_fZ-10" target="nmYpvtoVf5eafUVBB_fZ-19">
          <mxGeometry relative="1" as="geometry" />
        </mxCell>
        <mxCell id="nmYpvtoVf5eafUVBB_fZ-10" value="2. Create Account" style="rounded=1;whiteSpace=wrap;html=1;" vertex="1" parent="1">
          <mxGeometry x="500" y="460" width="120" height="60" as="geometry" />
        </mxCell>
        <mxCell id="nmYpvtoVf5eafUVBB_fZ-17" style="edgeStyle=orthogonalEdgeStyle;rounded=0;orthogonalLoop=1;jettySize=auto;html=1;entryX=0.5;entryY=0;entryDx=0;entryDy=0;" edge="1" parent="1" source="nmYpvtoVf5eafUVBB_fZ-11" target="nmYpvtoVf5eafUVBB_fZ-59">
          <mxGeometry relative="1" as="geometry">
            <mxPoint x="710" y="580" as="targetPoint" />
          </mxGeometry>
        </mxCell>
        <mxCell id="nmYpvtoVf5eafUVBB_fZ-11" value="&lt;div style=&quot;text-align: left;&quot;&gt;&lt;font face=&quot;SÃ¶hne Mono, Monaco, Andale Mono, Ubuntu Mono, monospace&quot; color=&quot;#ffffff&quot;&gt;&lt;span style=&quot;font-size: 14px; background-color: rgb(13, 13, 13);&quot;&gt;3. Exit&lt;/span&gt;&lt;/font&gt;&lt;/div&gt;" style="rounded=1;whiteSpace=wrap;html=1;" vertex="1" parent="1">
          <mxGeometry x="650" y="460" width="120" height="60" as="geometry" />
        </mxCell>
        <mxCell id="nmYpvtoVf5eafUVBB_fZ-18" value="Store user to database" style="shape=cylinder3;whiteSpace=wrap;html=1;boundedLbl=1;backgroundOutline=1;size=15;" vertex="1" parent="1">
          <mxGeometry x="620" y="800" width="90" height="100" as="geometry" />
        </mxCell>
        <mxCell id="nmYpvtoVf5eafUVBB_fZ-33" style="edgeStyle=orthogonalEdgeStyle;rounded=0;orthogonalLoop=1;jettySize=auto;html=1;entryX=0.5;entryY=0;entryDx=0;entryDy=0;" edge="1" parent="1" source="nmYpvtoVf5eafUVBB_fZ-19" target="nmYpvtoVf5eafUVBB_fZ-30">
          <mxGeometry relative="1" as="geometry" />
        </mxCell>
        <mxCell id="nmYpvtoVf5eafUVBB_fZ-19" value="Input&amp;nbsp;&lt;br&gt;&quot;User Details&quot;" style="shape=parallelogram;perimeter=parallelogramPerimeter;whiteSpace=wrap;html=1;fixedSize=1;" vertex="1" parent="1">
          <mxGeometry x="500" y="580" width="120" height="60" as="geometry" />
        </mxCell>
        <mxCell id="nmYpvtoVf5eafUVBB_fZ-39" style="edgeStyle=orthogonalEdgeStyle;rounded=0;orthogonalLoop=1;jettySize=auto;html=1;entryX=0.5;entryY=0;entryDx=0;entryDy=0;" edge="1" parent="1" source="nmYpvtoVf5eafUVBB_fZ-28" target="nmYpvtoVf5eafUVBB_fZ-38">
          <mxGeometry relative="1" as="geometry" />
        </mxCell>
        <mxCell id="nmYpvtoVf5eafUVBB_fZ-28" value="Input&amp;nbsp;&lt;br&gt;&quot;User Details&quot;" style="shape=parallelogram;perimeter=parallelogramPerimeter;whiteSpace=wrap;html=1;fixedSize=1;" vertex="1" parent="1">
          <mxGeometry x="250" y="580" width="120" height="60" as="geometry" />
        </mxCell>
        <mxCell id="nmYpvtoVf5eafUVBB_fZ-50" style="edgeStyle=orthogonalEdgeStyle;rounded=0;orthogonalLoop=1;jettySize=auto;html=1;entryX=0.25;entryY=1;entryDx=0;entryDy=0;" edge="1" parent="1" source="nmYpvtoVf5eafUVBB_fZ-30" target="nmYpvtoVf5eafUVBB_fZ-43">
          <mxGeometry relative="1" as="geometry">
            <Array as="points">
              <mxPoint x="399" y="730" />
            </Array>
          </mxGeometry>
        </mxCell>
        <mxCell id="nmYpvtoVf5eafUVBB_fZ-30" value="if new user" style="rhombus;whiteSpace=wrap;html=1;" vertex="1" parent="1">
          <mxGeometry x="520" y="690" width="80" height="80" as="geometry" />
        </mxCell>
        <mxCell id="nmYpvtoVf5eafUVBB_fZ-32" style="edgeStyle=orthogonalEdgeStyle;rounded=0;orthogonalLoop=1;jettySize=auto;html=1;entryX=0.5;entryY=0;entryDx=0;entryDy=0;entryPerimeter=0;" edge="1" parent="1" source="nmYpvtoVf5eafUVBB_fZ-30" target="nmYpvtoVf5eafUVBB_fZ-18">
          <mxGeometry relative="1" as="geometry">
            <mxPoint x="675" y="800" as="targetPoint" />
          </mxGeometry>
        </mxCell>
        <mxCell id="nmYpvtoVf5eafUVBB_fZ-34" value="Yes" style="text;html=1;align=center;verticalAlign=middle;resizable=0;points=[];autosize=1;strokeColor=none;fillColor=none;" vertex="1" parent="1">
          <mxGeometry x="610" y="698" width="40" height="30" as="geometry" />
        </mxCell>
        <mxCell id="nmYpvtoVf5eafUVBB_fZ-36" value="No" style="text;html=1;align=center;verticalAlign=middle;resizable=0;points=[];autosize=1;strokeColor=none;fillColor=none;" vertex="1" parent="1">
          <mxGeometry x="470" y="698" width="40" height="30" as="geometry" />
        </mxCell>
        <mxCell id="nmYpvtoVf5eafUVBB_fZ-51" style="edgeStyle=orthogonalEdgeStyle;rounded=0;orthogonalLoop=1;jettySize=auto;html=1;entryX=0;entryY=0.5;entryDx=0;entryDy=0;" edge="1" parent="1" source="nmYpvtoVf5eafUVBB_fZ-38" target="nmYpvtoVf5eafUVBB_fZ-43">
          <mxGeometry relative="1" as="geometry">
            <Array as="points">
              <mxPoint x="170" y="730" />
              <mxPoint x="170" y="230" />
            </Array>
          </mxGeometry>
        </mxCell>
        <mxCell id="nmYpvtoVf5eafUVBB_fZ-55" style="edgeStyle=orthogonalEdgeStyle;rounded=0;orthogonalLoop=1;jettySize=auto;html=1;entryX=0.5;entryY=0;entryDx=0;entryDy=0;" edge="1" parent="1" source="nmYpvtoVf5eafUVBB_fZ-38" target="nmYpvtoVf5eafUVBB_fZ-54">
          <mxGeometry relative="1" as="geometry" />
        </mxCell>
        <mxCell id="nmYpvtoVf5eafUVBB_fZ-38" value="Login&lt;br&gt;Successful" style="rhombus;whiteSpace=wrap;html=1;" vertex="1" parent="1">
          <mxGeometry x="265" y="685" width="90" height="90" as="geometry" />
        </mxCell>
        <mxCell id="nmYpvtoVf5eafUVBB_fZ-40" value="1" style="text;html=1;align=center;verticalAlign=middle;resizable=0;points=[];autosize=1;strokeColor=none;fillColor=none;" vertex="1" parent="1">
          <mxGeometry x="310" y="298" width="30" height="30" as="geometry" />
        </mxCell>
        <mxCell id="nmYpvtoVf5eafUVBB_fZ-41" value="2" style="text;html=1;align=center;verticalAlign=middle;resizable=0;points=[];autosize=1;strokeColor=none;fillColor=none;" vertex="1" parent="1">
          <mxGeometry x="460" y="328" width="30" height="30" as="geometry" />
        </mxCell>
        <mxCell id="nmYpvtoVf5eafUVBB_fZ-42" value="3" style="text;html=1;align=center;verticalAlign=middle;resizable=0;points=[];autosize=1;strokeColor=none;fillColor=none;" vertex="1" parent="1">
          <mxGeometry x="600" y="258" width="30" height="30" as="geometry" />
        </mxCell>
        <mxCell id="nmYpvtoVf5eafUVBB_fZ-45" style="edgeStyle=orthogonalEdgeStyle;rounded=0;orthogonalLoop=1;jettySize=auto;html=1;exitX=0;exitY=0.75;exitDx=0;exitDy=0;entryX=0.5;entryY=0;entryDx=0;entryDy=0;" edge="1" parent="1" source="nmYpvtoVf5eafUVBB_fZ-43" target="nmYpvtoVf5eafUVBB_fZ-9">
          <mxGeometry relative="1" as="geometry" />
        </mxCell>
        <mxCell id="nmYpvtoVf5eafUVBB_fZ-46" style="edgeStyle=orthogonalEdgeStyle;rounded=0;orthogonalLoop=1;jettySize=auto;html=1;exitX=1;exitY=0.75;exitDx=0;exitDy=0;" edge="1" parent="1" source="nmYpvtoVf5eafUVBB_fZ-43" target="nmYpvtoVf5eafUVBB_fZ-11">
          <mxGeometry relative="1" as="geometry" />
        </mxCell>
        <mxCell id="nmYpvtoVf5eafUVBB_fZ-48" style="edgeStyle=orthogonalEdgeStyle;rounded=0;orthogonalLoop=1;jettySize=auto;html=1;exitX=0.5;exitY=1;exitDx=0;exitDy=0;" edge="1" parent="1" source="nmYpvtoVf5eafUVBB_fZ-43" target="nmYpvtoVf5eafUVBB_fZ-10">
          <mxGeometry relative="1" as="geometry" />
        </mxCell>
        <mxCell id="nmYpvtoVf5eafUVBB_fZ-43" value="&lt;div style=&quot;&quot;&gt;&lt;br&gt;&lt;/div&gt;&lt;div style=&quot;text-align: left; border-color: rgb(0, 0, 0); color: rgb(240, 240, 240); font-family: Helvetica; font-size: 12px; font-style: normal; font-variant-ligatures: normal; font-variant-caps: normal; font-weight: 400; letter-spacing: normal; orphans: 2; text-indent: 0px; text-transform: none; widows: 2; word-spacing: 0px; -webkit-text-stroke-width: 0px; background-color: rgb(27, 29, 30); text-decoration-thickness: initial; text-decoration-style: initial; text-decoration-color: initial;&quot;&gt;1. Login&lt;/div&gt;&lt;div style=&quot;text-align: left; border-color: rgb(0, 0, 0); color: rgb(240, 240, 240); font-family: Helvetica; font-size: 12px; font-style: normal; font-variant-ligatures: normal; font-variant-caps: normal; font-weight: 400; letter-spacing: normal; orphans: 2; text-indent: 0px; text-transform: none; widows: 2; word-spacing: 0px; -webkit-text-stroke-width: 0px; background-color: rgb(27, 29, 30); text-decoration-thickness: initial; text-decoration-style: initial; text-decoration-color: initial;&quot;&gt;2. Create an Account&lt;/div&gt;&lt;span style=&quot;color: rgb(240, 240, 240); font-family: Helvetica; font-size: 12px; font-style: normal; font-variant-ligatures: normal; font-variant-caps: normal; font-weight: 400; letter-spacing: normal; orphans: 2; text-indent: 0px; text-transform: none; widows: 2; word-spacing: 0px; -webkit-text-stroke-width: 0px; background-color: rgb(27, 29, 30); text-decoration-thickness: initial; text-decoration-style: initial; text-decoration-color: initial; float: none; display: inline !important;&quot;&gt;&lt;div style=&quot;text-align: left;&quot;&gt;3. Exit&lt;/div&gt;&lt;/span&gt;&lt;span style=&quot;color: rgb(240, 240, 240); font-family: Helvetica; font-size: 12px; font-style: normal; font-variant-ligatures: normal; font-variant-caps: normal; font-weight: 400; letter-spacing: normal; orphans: 2; text-indent: 0px; text-transform: none; widows: 2; word-spacing: 0px; -webkit-text-stroke-width: 0px; background-color: rgb(27, 29, 30); text-decoration-thickness: initial; text-decoration-style: initial; text-decoration-color: initial; float: none; display: inline !important;&quot;&gt;&lt;div style=&quot;&quot;&gt;Enter choice[1-3]:&lt;/div&gt;&lt;/span&gt;&lt;div style=&quot;&quot;&gt;&lt;br&gt;&lt;/div&gt;" style="rounded=0;whiteSpace=wrap;html=1;align=center;" vertex="1" parent="1">
          <mxGeometry x="340" y="180" width="235" height="100" as="geometry" />
        </mxCell>
        <mxCell id="nmYpvtoVf5eafUVBB_fZ-61" style="edgeStyle=orthogonalEdgeStyle;rounded=0;orthogonalLoop=1;jettySize=auto;html=1;exitX=1.002;exitY=0.564;exitDx=0;exitDy=0;entryX=0.5;entryY=0;entryDx=0;entryDy=0;exitPerimeter=0;" edge="1" parent="1" source="nmYpvtoVf5eafUVBB_fZ-54" target="nmYpvtoVf5eafUVBB_fZ-60">
          <mxGeometry relative="1" as="geometry" />
        </mxCell>
        <mxCell id="nmYpvtoVf5eafUVBB_fZ-87" style="edgeStyle=orthogonalEdgeStyle;rounded=0;orthogonalLoop=1;jettySize=auto;html=1;entryX=0.5;entryY=0;entryDx=0;entryDy=0;" edge="1" parent="1" source="nmYpvtoVf5eafUVBB_fZ-54" target="nmYpvtoVf5eafUVBB_fZ-63">
          <mxGeometry relative="1" as="geometry">
            <Array as="points">
              <mxPoint x="150" y="895" />
            </Array>
          </mxGeometry>
        </mxCell>
        <mxCell id="nmYpvtoVf5eafUVBB_fZ-88" style="edgeStyle=orthogonalEdgeStyle;rounded=0;orthogonalLoop=1;jettySize=auto;html=1;" edge="1" parent="1" source="nmYpvtoVf5eafUVBB_fZ-54" target="nmYpvtoVf5eafUVBB_fZ-85">
          <mxGeometry relative="1" as="geometry" />
        </mxCell>
        <mxCell id="nmYpvtoVf5eafUVBB_fZ-97" style="edgeStyle=orthogonalEdgeStyle;rounded=0;orthogonalLoop=1;jettySize=auto;html=1;exitX=0.75;exitY=1;exitDx=0;exitDy=0;entryX=0.5;entryY=0;entryDx=0;entryDy=0;" edge="1" parent="1" source="nmYpvtoVf5eafUVBB_fZ-54" target="nmYpvtoVf5eafUVBB_fZ-96">
          <mxGeometry relative="1" as="geometry" />
        </mxCell>
        <mxCell id="nmYpvtoVf5eafUVBB_fZ-54" value="&lt;div&gt;&amp;nbsp; &amp;nbsp; &amp;nbsp; &amp;nbsp; 1. Create Task&lt;/div&gt;&lt;div&gt;&amp;nbsp; &amp;nbsp; &amp;nbsp; &amp;nbsp; 2. Update Task&lt;/div&gt;&lt;div&gt;&amp;nbsp; &amp;nbsp; &amp;nbsp; &amp;nbsp; 3. Delete Task&lt;/div&gt;&lt;div&gt;&amp;nbsp; &amp;nbsp; &amp;nbsp; &amp;nbsp; 4. Search Task&lt;/div&gt;&lt;div&gt;&amp;nbsp; &amp;nbsp; &amp;nbsp; &amp;nbsp; 5. Mark Task as Completed&lt;/div&gt;&lt;div&gt;&amp;nbsp; &amp;nbsp; &amp;nbsp; &amp;nbsp; 6. Logout&lt;/div&gt;" style="rounded=0;whiteSpace=wrap;html=1;align=left;" vertex="1" parent="1">
          <mxGeometry x="210" y="820" width="200" height="150" as="geometry" />
        </mxCell>
        <mxCell id="nmYpvtoVf5eafUVBB_fZ-58" style="edgeStyle=orthogonalEdgeStyle;rounded=0;orthogonalLoop=1;jettySize=auto;html=1;" edge="1" parent="1" source="nmYpvtoVf5eafUVBB_fZ-57" target="nmYpvtoVf5eafUVBB_fZ-43">
          <mxGeometry relative="1" as="geometry" />
        </mxCell>
        <mxCell id="nmYpvtoVf5eafUVBB_fZ-57" value="Start" style="rounded=1;whiteSpace=wrap;html=1;" vertex="1" parent="1">
          <mxGeometry x="397.5" y="60" width="120" height="60" as="geometry" />
        </mxCell>
        <mxCell id="nmYpvtoVf5eafUVBB_fZ-59" value="End" style="rounded=1;whiteSpace=wrap;html=1;" vertex="1" parent="1">
          <mxGeometry x="650" y="580" width="120" height="60" as="geometry" />
        </mxCell>
        <mxCell id="nmYpvtoVf5eafUVBB_fZ-60" value="End" style="rounded=1;whiteSpace=wrap;html=1;" vertex="1" parent="1">
          <mxGeometry x="485" y="940" width="120" height="60" as="geometry" />
        </mxCell>
        <mxCell id="nmYpvtoVf5eafUVBB_fZ-62" value="6&lt;br&gt;" style="text;html=1;align=center;verticalAlign=middle;resizable=0;points=[];autosize=1;strokeColor=none;fillColor=none;" vertex="1" parent="1">
          <mxGeometry x="442.5" y="910" width="30" height="30" as="geometry" />
        </mxCell>
        <mxCell id="nmYpvtoVf5eafUVBB_fZ-77" style="edgeStyle=orthogonalEdgeStyle;rounded=0;orthogonalLoop=1;jettySize=auto;html=1;" edge="1" parent="1" source="nmYpvtoVf5eafUVBB_fZ-63" target="nmYpvtoVf5eafUVBB_fZ-68">
          <mxGeometry relative="1" as="geometry" />
        </mxCell>
        <mxCell id="nmYpvtoVf5eafUVBB_fZ-63" value="Input task details" style="shape=parallelogram;perimeter=parallelogramPerimeter;whiteSpace=wrap;html=1;fixedSize=1;" vertex="1" parent="1">
          <mxGeometry x="90" y="1080" width="120" height="60" as="geometry" />
        </mxCell>
        <mxCell id="nmYpvtoVf5eafUVBB_fZ-79" style="edgeStyle=orthogonalEdgeStyle;rounded=0;orthogonalLoop=1;jettySize=auto;html=1;entryX=0.5;entryY=1;entryDx=0;entryDy=0;" edge="1" parent="1" source="nmYpvtoVf5eafUVBB_fZ-68" target="nmYpvtoVf5eafUVBB_fZ-63">
          <mxGeometry relative="1" as="geometry" />
        </mxCell>
        <mxCell id="nmYpvtoVf5eafUVBB_fZ-110" style="edgeStyle=orthogonalEdgeStyle;rounded=0;orthogonalLoop=1;jettySize=auto;html=1;entryX=0;entryY=0.5;entryDx=0;entryDy=0;" edge="1" parent="1" source="nmYpvtoVf5eafUVBB_fZ-68" target="nmYpvtoVf5eafUVBB_fZ-106">
          <mxGeometry relative="1" as="geometry" />
        </mxCell>
        <mxCell id="nmYpvtoVf5eafUVBB_fZ-68" value="Store, &lt;br&gt;Update,&lt;br&gt;Delete,&lt;br&gt;Search&lt;br&gt;Task" style="shape=cylinder3;whiteSpace=wrap;html=1;boundedLbl=1;backgroundOutline=1;size=15;" vertex="1" parent="1">
          <mxGeometry x="90" y="1200" width="97.5" height="120" as="geometry" />
        </mxCell>
        <mxCell id="nmYpvtoVf5eafUVBB_fZ-78" value="if 1, 2 or 3 &lt;br&gt;is choosen" style="text;html=1;align=center;verticalAlign=middle;resizable=0;points=[];autosize=1;strokeColor=none;fillColor=none;" vertex="1" parent="1">
          <mxGeometry x="60" y="1005" width="80" height="40" as="geometry" />
        </mxCell>
        <mxCell id="nmYpvtoVf5eafUVBB_fZ-93" style="edgeStyle=orthogonalEdgeStyle;rounded=0;orthogonalLoop=1;jettySize=auto;html=1;entryX=1;entryY=0.5;entryDx=0;entryDy=0;" edge="1" parent="1" source="nmYpvtoVf5eafUVBB_fZ-85" target="nmYpvtoVf5eafUVBB_fZ-63">
          <mxGeometry relative="1" as="geometry" />
        </mxCell>
        <mxCell id="nmYpvtoVf5eafUVBB_fZ-94" style="edgeStyle=orthogonalEdgeStyle;rounded=0;orthogonalLoop=1;jettySize=auto;html=1;entryX=0.5;entryY=1;entryDx=0;entryDy=0;" edge="1" parent="1" source="nmYpvtoVf5eafUVBB_fZ-85" target="nmYpvtoVf5eafUVBB_fZ-54">
          <mxGeometry relative="1" as="geometry" />
        </mxCell>
        <mxCell id="nmYpvtoVf5eafUVBB_fZ-85" value="if&amp;nbsp;Incomplete" style="rhombus;whiteSpace=wrap;html=1;" vertex="1" parent="1">
          <mxGeometry x="265" y="1065" width="90" height="90" as="geometry" />
        </mxCell>
        <mxCell id="nmYpvtoVf5eafUVBB_fZ-89" value="Yes" style="text;html=1;align=center;verticalAlign=middle;resizable=0;points=[];autosize=1;strokeColor=none;fillColor=none;" vertex="1" parent="1">
          <mxGeometry x="225" y="1080" width="40" height="30" as="geometry" />
        </mxCell>
        <mxCell id="nmYpvtoVf5eafUVBB_fZ-95" value="Not&lt;br&gt;" style="text;html=1;align=center;verticalAlign=middle;resizable=0;points=[];autosize=1;strokeColor=none;fillColor=none;" vertex="1" parent="1">
          <mxGeometry x="270" y="1010" width="40" height="30" as="geometry" />
        </mxCell>
        <mxCell id="nmYpvtoVf5eafUVBB_fZ-101" style="edgeStyle=orthogonalEdgeStyle;rounded=0;orthogonalLoop=1;jettySize=auto;html=1;entryX=0.5;entryY=0;entryDx=0;entryDy=0;" edge="1" parent="1" source="nmYpvtoVf5eafUVBB_fZ-96" target="nmYpvtoVf5eafUVBB_fZ-100">
          <mxGeometry relative="1" as="geometry" />
        </mxCell>
        <mxCell id="nmYpvtoVf5eafUVBB_fZ-96" value="Input task details" style="rounded=0;whiteSpace=wrap;html=1;" vertex="1" parent="1">
          <mxGeometry x="372.5" y="1170" width="120" height="60" as="geometry" />
        </mxCell>
        <mxCell id="nmYpvtoVf5eafUVBB_fZ-105" style="edgeStyle=orthogonalEdgeStyle;rounded=0;orthogonalLoop=1;jettySize=auto;html=1;entryX=1;entryY=1;entryDx=0;entryDy=0;exitX=1;exitY=0.5;exitDx=0;exitDy=0;" edge="1" parent="1" source="nmYpvtoVf5eafUVBB_fZ-100" target="nmYpvtoVf5eafUVBB_fZ-54">
          <mxGeometry relative="1" as="geometry">
            <Array as="points">
              <mxPoint x="520" y="1310" />
              <mxPoint x="520" y="1050" />
              <mxPoint x="410" y="1050" />
            </Array>
          </mxGeometry>
        </mxCell>
        <mxCell id="nmYpvtoVf5eafUVBB_fZ-107" style="edgeStyle=orthogonalEdgeStyle;rounded=0;orthogonalLoop=1;jettySize=auto;html=1;" edge="1" parent="1" source="nmYpvtoVf5eafUVBB_fZ-100" target="nmYpvtoVf5eafUVBB_fZ-106">
          <mxGeometry relative="1" as="geometry" />
        </mxCell>
        <mxCell id="nmYpvtoVf5eafUVBB_fZ-100" value="if found" style="rhombus;whiteSpace=wrap;html=1;" vertex="1" parent="1">
          <mxGeometry x="392.5" y="1270" width="80" height="80" as="geometry" />
        </mxCell>
        <mxCell id="nmYpvtoVf5eafUVBB_fZ-109" style="edgeStyle=orthogonalEdgeStyle;rounded=0;orthogonalLoop=1;jettySize=auto;html=1;" edge="1" parent="1" source="nmYpvtoVf5eafUVBB_fZ-106" target="nmYpvtoVf5eafUVBB_fZ-68">
          <mxGeometry relative="1" as="geometry" />
        </mxCell>
        <mxCell id="nmYpvtoVf5eafUVBB_fZ-106" value="Display task details" style="rounded=0;whiteSpace=wrap;html=1;" vertex="1" parent="1">
          <mxGeometry x="225" y="1280" width="120" height="60" as="geometry" />
        </mxCell>
        <mxCell id="nmYpvtoVf5eafUVBB_fZ-111" value="Yes" style="text;html=1;align=center;verticalAlign=middle;resizable=0;points=[];autosize=1;strokeColor=none;fillColor=none;" vertex="1" parent="1">
          <mxGeometry x="355" y="1278" width="40" height="30" as="geometry" />
        </mxCell>
        <mxCell id="nmYpvtoVf5eafUVBB_fZ-112" value="None" style="text;html=1;align=center;verticalAlign=middle;resizable=0;points=[];autosize=1;strokeColor=none;fillColor=none;" vertex="1" parent="1">
          <mxGeometry x="435" y="1278" width="50" height="30" as="geometry" />
        </mxCell>
      </root>
    </mxGraphModel>
  </diagram>
</mxfile>
